<svg width="1536" height="1536" viewBox="0 0 1536 1536" fill="none" xmlns="http://www.w3.org/2000/svg">
<path d="M717 1267L1171 813C1183.67 800.333 1190 785.333 1190 768C1190 750.667 1183.67 735.667 1171 723L717 269C704.333 256.333 689.333 250 672 250C654.667 250 639.667 256.333 627 269L525 371C512.333 383.667 506 398.667 506 416C506 433.333 512.333 448.333 525 461L832 768L525 1075C512.333 1087.67 506 1102.67 506 1120C506 1137.33 512.333 1152.33 525 1165L627 1267C639.667 1279.67 654.667 1286 672 1286C689.333 1286 704.333 1279.67 717 1267ZM1536 768C1536 907.333 1501.67 1035.83 1433 1153.5C1364.33 1271.17 1271.17 1364.33 1153.5 1433C1035.83 1501.67 907.333 1536 768 1536C628.667 1536 500.167 1501.67 382.5 1433C264.833 1364.33 171.667 1271.17 103 1153.5C34.3333 1035.83 0 907.333 0 768C0 628.667 34.3333 500.167 103 382.5C171.667 264.833 264.833 171.667 382.5 103C500.167 34.3333 628.667 0 768 0C907.333 0 1035.83 34.3333 1153.5 103C1271.17 171.667 1364.33 264.833 1433 382.5C1501.67 500.167 1536 628.667 1536 768Z" fill="#497092"/>
</svg>
